REM DIRINDEX 1\2,1\3\7,1\3\8,1\4\9,1\4\10,1\4\11,1\5\12,1\5\13,1\5\14,1\6\15,1\6\16,1\6\17
REM DIRNAME "folder01","folder02","folder03","folder04","folder05","folder06","folder07","folder08","folder09","folder10","folder11","folder12","folder13","folder14","folder15","folder16","folder17"
TITLE ""
FILE "2Q_t_0153-0170.mp3" MP3
  TRACK 01 AUDIO
    TITLE "7:cjc174_2041"
    INDEX 01 00:00:00
  TRACK 02 AUDIO
    TITLE "0:"
    INDEX 01 00:01:41
  TRACK 03 AUDIO
    TITLE "8:cjc174_2042"
    INDEX 01 00:02:17
  TRACK 04 AUDIO
    TITLE "0:"
    INDEX 01 00:04:24
  TRACK 05 AUDIO
    TITLE "7:cjc174_2043"
    INDEX 01 00:04:67
  TRACK 06 AUDIO
    TITLE "0:"
    INDEX 01 00:06:11
  TRACK 07 AUDIO
    TITLE "8:cjc174_2044"
    INDEX 01 00:06:56
  TRACK 08 AUDIO
    TITLE "0:"
    INDEX 01 00:08:63
  TRACK 09 AUDIO
    TITLE "7:cjc174_2045"
    INDEX 01 00:09:33
  TRACK 10 AUDIO
    TITLE "0:"
    INDEX 01 00:10:46
  TRACK 11 AUDIO
    TITLE "8:cjc174_2046"
    INDEX 01 00:11:24
  TRACK 12 AUDIO
    TITLE "0:"
    INDEX 01 00:12:41
  TRACK 13 AUDIO
    TITLE "7:cjc174_2047"
    INDEX 01 00:13:11
  TRACK 14 AUDIO
    TITLE "0:"
    INDEX 01 00:14:16
  TRACK 15 AUDIO
    TITLE "8:cjc174_2048"
    INDEX 01 00:14:63
  TRACK 16 AUDIO
    TITLE "0:"
    INDEX 01 00:16:64
  TRACK 17 AUDIO
    TITLE "7:cjc174_2049"
    INDEX 01 00:17:34
  TRACK 18 AUDIO
    TITLE "0:"
    INDEX 01 00:18:61
  TRACK 19 AUDIO
    TITLE "8:cjc174_2050"
    INDEX 01 00:19:37
  TRACK 20 AUDIO
    TITLE "0:"
    INDEX 01 00:22:61
  TRACK 21 AUDIO
    TITLE "7:cjc174_2051"
    INDEX 01 00:23:33
  TRACK 22 AUDIO
    TITLE "0:"
    INDEX 01 00:24:38
  TRACK 23 AUDIO
    TITLE "8:cjc174_2052"
    INDEX 01 00:25:14
  TRACK 24 AUDIO
    TITLE "0:"
    INDEX 01 00:27:07
  TRACK 25 AUDIO
    TITLE "7:cjc174_2053"
    INDEX 01 00:27:50
  TRACK 26 AUDIO
    TITLE "0:"
    INDEX 01 00:29:10
  TRACK 27 AUDIO
    TITLE "8:cjc174_2054"
    INDEX 01 00:29:55
  TRACK 28 AUDIO
    TITLE "0:"
    INDEX 01 00:31:15
  TRACK 29 AUDIO
    TITLE "7:cjc174_2055"
    INDEX 01 00:31:62
  TRACK 30 AUDIO
    TITLE "0:"
    INDEX 01 00:33:31
  TRACK 31 AUDIO
    TITLE "8:cjc174_2056"
    INDEX 01 00:34:03
  TRACK 32 AUDIO
    TITLE "0:"
    INDEX 01 00:36:18
  TRACK 33 AUDIO
    TITLE "7:cjc174_2057"
    INDEX 01 00:36:65
  TRACK 34 AUDIO
    TITLE "0:"
    INDEX 01 00:37:74
  TRACK 35 AUDIO
    TITLE "8:cjc174_2058"
    INDEX 01 00:38:48
  TRACK 36 AUDIO
    TITLE "0:"
    INDEX 01 00:41:66
  TRACK 37 AUDIO
    TITLE "7:cjc174_2059"
    INDEX 01 00:42:34
  TRACK 38 AUDIO
    TITLE "0:"
    INDEX 01 00:43:41
  TRACK 39 AUDIO
    TITLE "8:cjc174_2060"
    INDEX 01 00:44:12
  TRACK 40 AUDIO
    TITLE "0:"
    INDEX 01 00:45:15
  TRACK 41 AUDIO
    TITLE "7:cjc174_2061"
    INDEX 01 00:45:60
  TRACK 42 AUDIO
    TITLE "0:"
    INDEX 01 00:47:10
  TRACK 43 AUDIO
    TITLE "8:cjc174_2062"
    INDEX 01 00:47:63
  TRACK 44 AUDIO
    TITLE "0:"
    INDEX 01 00:50:24
  TRACK 45 AUDIO
    TITLE "7:cjc174_2063"
    INDEX 01 00:50:69
  TRACK 46 AUDIO
    TITLE "0:"
    INDEX 01 00:52:01
  TRACK 47 AUDIO
    TITLE "8:cjc174_2064"
    INDEX 01 00:52:46
  TRACK 48 AUDIO
    TITLE "0:"
    INDEX 01 00:54:35
  TRACK 49 AUDIO
    TITLE "7:cjc174_2065"
    INDEX 01 00:55:03
  TRACK 50 AUDIO
    TITLE "0:"
    INDEX 01 00:56:40
  TRACK 51 AUDIO
    TITLE "8:cjc174_2066"
    INDEX 01 00:57:14
  TRACK 52 AUDIO
    TITLE "0:"
    INDEX 01 01:00:50
  TRACK 53 AUDIO
    TITLE "7:cjc174_2067"
    INDEX 01 01:01:20
  TRACK 54 AUDIO
    TITLE "0:"
    INDEX 01 01:02:47
  TRACK 55 AUDIO
    TITLE "8:cjc174_2068"
    INDEX 01 01:03:19
  TRACK 56 AUDIO
    TITLE "0:"
    INDEX 01 01:05:45
  TRACK 57 AUDIO
    TITLE "7:cjc174_2069"
    INDEX 01 01:06:15
  TRACK 58 AUDIO
    TITLE "0:"
    INDEX 01 01:07:38
  TRACK 59 AUDIO
    TITLE "8:cjc174_2070"
    INDEX 01 01:08:24
  TRACK 60 AUDIO
    TITLE "0:"
    INDEX 01 01:09:43
  TRACK 61 AUDIO
    TITLE "7:cjc174_2071"
    INDEX 01 01:10:13
  TRACK 62 AUDIO
    TITLE "0:"
    INDEX 01 01:11:28
  TRACK 63 AUDIO
    TITLE "8:cjc174_2072"
    INDEX 01 01:12:04
  TRACK 64 AUDIO
    TITLE "0:"
    INDEX 01 01:13:48
  TRACK 65 AUDIO
    TITLE "7:cjc174_2073"
    INDEX 01 01:14:18
  TRACK 66 AUDIO
    TITLE "0:"
    INDEX 01 01:15:41
  TRACK 67 AUDIO
    TITLE "8:cjc174_2074"
    INDEX 01 01:16:13
  TRACK 68 AUDIO
    TITLE "0:"
    INDEX 01 01:18:16
  TRACK 69 AUDIO
    TITLE "7:cjc174_2075"
    INDEX 01 01:18:61
  TRACK 70 AUDIO
    TITLE "0:"
    INDEX 01 01:20:13
  TRACK 71 AUDIO
    TITLE "8:cjc174_2076"
    INDEX 01 01:20:58
  TRACK 72 AUDIO
    TITLE "0:"
    INDEX 01 01:21:64
